# xmcd CD database file
#
# Track frame offsets:
#	150
#	22360
#	41930
#	55032
#	81372
#	100852
#	108677
#	130577
#	148355
#	174430
#	189040
#	199100
#
# Disc length: 2896 seconds
#
# Revision: 0
# Processed by: cddbd v1.5.1PL0 Copyright (c) Steve Scherf et al.
# Submitted via: CDex 1.51
#
DISCID=ac0b4e0c
DTITLE=加古隆 - クレーの絵
DYEAR=1900
DGENRE=New Age
TTITLE0=秋を告げる使者
TTITLE1=水中の魚たち
TTITLE2=さえずり機械
TTITLE3=世捨て人の庵
TTITLE4=青い花
TTITLE5=乾いて冷たい庭園
TTITLE6=雪の前
TTITLE7=にぎわう港
TTITLE8=冬の山
TTITLE9=公園のたそがれ
TTITLE10=大通りと脇道
TTITLE11=いにしえの響き
EXTD=
EXTT0=
EXTT1=
EXTT2=
EXTT3=
EXTT4=
EXTT5=
EXTT6=
EXTT7=
EXTT8=
EXTT9=
EXTT10=
EXTT11=
PLAYORDER=
